<svg width="30" height="30" viewBox="0 0 30 30" fill="none" xmlns="http://www.w3.org/2000/svg">
<path d="M22.5937 1.9425L27.81 7.38001V28.0575H8.32404V28.125H27.8765V7.44844L22.5937 1.9425Z" fill="#909090"/>
<path d="M22.5291 1.875H8.25751V28.0575H27.81V7.38094L22.5291 1.875Z" fill="#F4F4F4"/>
<path d="M8.11404 3.28125H2.12341V9.68156H20.9672V3.28125H8.11404Z" fill="#7A7B7C"/>
<path d="M21.0675 9.57279H2.2453V3.16779H21.0675V9.57279Z" fill="#DD2025"/>
<path d="M8.48624 4.25063H7.26093V8.75063H8.22468V7.23281L8.43749 7.245C8.64434 7.24215 8.8493 7.20509 9.04405 7.13531C9.21526 7.07718 9.37261 6.9843 9.50624 6.8625C9.64327 6.7476 9.75093 6.6017 9.8203 6.43688C9.91522 6.1638 9.94883 5.87316 9.91874 5.58563C9.91339 5.38018 9.87737 5.17668 9.81186 4.98188C9.75283 4.84107 9.66505 4.71414 9.55415 4.60921C9.44324 4.50428 9.31165 4.42366 9.1678 4.3725C9.04378 4.32657 8.91526 4.29389 8.78436 4.275C8.68549 4.2589 8.58548 4.25075 8.4853 4.25063M8.30811 6.40125H8.22468V5.01375H8.40561C8.48547 5.00799 8.5656 5.02025 8.64008 5.04962C8.71456 5.07899 8.78149 5.12472 8.83593 5.18344C8.94872 5.33439 9.00898 5.51813 9.00749 5.70656C9.00749 5.93719 9.00749 6.14625 8.79936 6.29344C8.64946 6.37601 8.47877 6.41408 8.30811 6.40125ZM11.7497 4.23844C11.6456 4.23844 11.5444 4.24594 11.4731 4.24875L11.25 4.25438H10.5187V8.75438H11.3794C11.7082 8.76283 12.0356 8.70711 12.3431 8.59031C12.5907 8.49253 12.8099 8.33427 12.9806 8.13C13.1479 7.92483 13.2674 7.68495 13.3303 7.42781C13.4042 7.13712 13.4402 6.83806 13.4372 6.53813C13.4555 6.1839 13.4281 5.82878 13.3556 5.48156C13.2862 5.22627 13.1578 4.99088 12.9806 4.79438C12.8417 4.63548 12.6708 4.50769 12.4791 4.41938C12.3148 4.34325 12.142 4.28722 11.9644 4.2525C11.8937 4.24092 11.8222 4.23559 11.7506 4.23656M11.58 7.9275H11.4862V5.055H11.4984C11.6917 5.03265 11.8873 5.06753 12.0609 5.15531C12.1881 5.25687 12.2917 5.38481 12.3647 5.53031C12.4434 5.68344 12.4888 5.85151 12.4978 6.02344C12.5062 6.22969 12.4978 6.39844 12.4978 6.53813C12.5013 6.69903 12.4909 6.85993 12.4669 7.01906C12.4374 7.18225 12.384 7.3402 12.3084 7.48781C12.2231 7.62548 12.1065 7.7411 11.9681 7.82531C11.8525 7.90032 11.7155 7.93523 11.5781 7.92469M16.3406 4.25438H14.0625V8.75438H15.0262V6.96938H16.245V6.13313H15.0262V5.09063H16.3387V4.25438" fill="#464648"/>
<path d="M20.4197 18.989C20.4197 18.989 23.4085 18.4472 23.4085 19.4681C23.4085 20.489 21.5569 20.0737 20.4197 18.989ZM18.21 19.0669C17.7351 19.1715 17.2723 19.3251 16.8291 19.5253L17.2041 18.6815C17.5791 17.8378 17.9681 16.6875 17.9681 16.6875C18.4145 17.4413 18.9352 18.1486 19.5225 18.7987C19.0804 18.8646 18.6422 18.9547 18.21 19.0687V19.0669ZM17.0269 12.9731C17.0269 12.0834 17.3147 11.8406 17.5388 11.8406C17.7628 11.8406 18.015 11.9484 18.0235 12.7209C17.9503 13.4977 17.7877 14.2634 17.5388 15.0028C17.1966 14.3824 17.02 13.6844 17.026 12.9759L17.0269 12.9731ZM12.6685 22.8319C11.7516 22.2834 14.5913 20.595 15.106 20.5406C15.1031 20.5415 13.6285 23.4056 12.6685 22.8319ZM24.2813 19.589C24.2719 19.4953 24.1875 18.4575 22.3406 18.5015C21.5708 18.488 20.8013 18.5423 20.041 18.6637C19.304 17.9219 18.6696 17.0848 18.1547 16.1747C18.4789 15.2365 18.6753 14.259 18.7388 13.2684C18.7116 12.1434 18.4425 11.4984 17.58 11.5078C16.7175 11.5172 16.5919 12.2719 16.7053 13.395C16.8164 14.1497 17.026 14.8866 17.3288 15.5869C17.3288 15.5869 16.9303 16.8272 16.4035 18.0609C15.8766 19.2947 15.5166 19.9415 15.5166 19.9415C14.6002 20.2395 13.7377 20.6826 12.9619 21.254C12.1894 21.9731 11.8753 22.5253 12.2822 23.0775C12.6328 23.5537 13.86 23.6615 14.9569 22.2244C15.5387 21.4813 16.0711 20.7009 16.5506 19.8881C16.5506 19.8881 18.2231 19.4297 18.7435 19.304C19.2638 19.1784 19.8928 19.079 19.8928 19.079C19.8928 19.079 21.42 20.6156 22.8928 20.5612C24.3656 20.5069 24.2944 19.6809 24.285 19.5909" fill="#DD2025"/>
<path d="M22.4568 1.9472V7.45314H27.7378L22.4568 1.9472Z" fill="#909090"/>
<path d="M22.5291 1.875V7.38094H27.81L22.5291 1.875Z" fill="#F4F4F4"/>
<path d="M8.41403 4.17842H7.18872V8.67842H8.15622V7.16155L8.36997 7.17373C8.57683 7.17088 8.78178 7.13382 8.97653 7.06405C9.14774 7.00591 9.30509 6.91304 9.43872 6.79123C9.57472 6.67602 9.6814 6.53014 9.74997 6.36561C9.84489 6.09253 9.8785 5.80189 9.84841 5.51436C9.84306 5.30891 9.80704 5.10541 9.74153 4.91061C9.6825 4.7698 9.59472 4.64288 9.48382 4.53794C9.37291 4.43301 9.24132 4.35239 9.09747 4.30123C8.97289 4.25485 8.84372 4.22186 8.71216 4.2028C8.61328 4.18669 8.51327 4.17854 8.4131 4.17842M8.23591 6.32905H8.15247V4.94155H8.33435C8.4142 4.93579 8.49433 4.94805 8.56881 4.97742C8.6433 5.00679 8.71023 5.05252 8.76466 5.11123C8.87746 5.26219 8.93771 5.44592 8.93622 5.63436C8.93622 5.86498 8.93622 6.07405 8.7281 6.22123C8.5782 6.3038 8.4075 6.34094 8.23685 6.32811M11.6775 4.16623C11.5734 4.16623 11.4722 4.17373 11.4009 4.17655L11.1806 4.18217H10.4493V8.68217H11.31C11.6388 8.69063 11.9662 8.6349 12.2737 8.51811C12.5213 8.42032 12.7405 8.26207 12.9112 8.0578C13.0785 7.85263 13.198 7.61275 13.2609 7.35561C13.3349 7.06491 13.3708 6.76586 13.3678 6.46592C13.3861 6.11169 13.3587 5.75657 13.2862 5.40936C13.2168 5.15407 13.0884 4.91867 12.9112 4.72217C12.7723 4.56327 12.6014 4.43549 12.4097 4.34717C12.2454 4.27105 12.0726 4.21502 11.895 4.1803C11.8243 4.16872 11.7528 4.16338 11.6812 4.16436M11.5106 7.8553H11.4168V4.9828H11.429C11.6223 4.96045 11.8179 4.99533 11.9915 5.08311C12.1187 5.18467 12.2224 5.31261 12.2953 5.45811C12.374 5.61124 12.4194 5.7793 12.4284 5.95123C12.4368 6.15748 12.4284 6.32623 12.4284 6.46592C12.4319 6.62682 12.4215 6.78773 12.3975 6.94686C12.368 7.11004 12.3146 7.26799 12.239 7.41561C12.1537 7.55327 12.0371 7.6689 11.8987 7.75311C11.7831 7.82811 11.6461 7.86303 11.5087 7.85248M16.2684 4.18217H13.9903V8.68217H14.954V6.89717H16.1728V6.06092H14.954V5.01842H16.2665V4.18217" fill="white"/>
</svg>
